<?xml version="1.0" encoding="UTF-8" standalone="no"?>
<!DOCTYPE svg PUBLIC "-//W3C//DTD SVG 1.1//EN" "http://www.w3.org/Graphics/SVG/1.1/DTD/svg11.dtd">
<svg width="100%" height="100%" viewBox="0 0 1346 403" version="1.1" xmlns="http://www.w3.org/2000/svg" xmlns:xlink="http://www.w3.org/1999/xlink" xml:space="preserve" xmlns:serif="http://www.serif.com/" style="fill-rule:evenodd;clip-rule:evenodd;stroke-linejoin:round;stroke-miterlimit:2;">
    <g transform="matrix(1,0,0,1,-2138.95,-1059.11)">
        <g transform="matrix(0.444782,0,0,0.444782,2218.66,702.485)">
            <path d="M1011.91,1380L1093.15,1380L1093.15,1317.93L1102.64,1307.06L1148.7,1380L1244.78,1380L1162.54,1256.05L1243.59,1161.36L1149.1,1161.36L1096.32,1225.21L1093.15,1225.21L1093.15,1083.48L1011.91,1083.48L1011.91,1380Z" style="fill:rgb(149,198,35);fill-rule:nonzero;"/>
            <g transform="matrix(1,0,0,1,-2.24829,0)">
                <path d="M1472.57,1161.36L1391.72,1161.36L1391.72,1277.6C1391.72,1300.14 1381.24,1316.35 1359.3,1316.35C1333.4,1316.35 1327.08,1301.32 1327.08,1278.39L1327.08,1161.36L1246.22,1161.36L1246.22,1280.57C1246.22,1369.92 1284.77,1384.15 1327.67,1384.15C1358.31,1384.15 1380.45,1368.53 1389.74,1344.62L1391.72,1344.62L1391.72,1380L1472.57,1380L1472.57,1161.36Z" style="fill:rgb(149,198,35);fill-rule:nonzero;"/>
            </g>
            <g transform="matrix(1,0,0,1,-1.12388,-9.09495e-13)">
                <path d="M1496.15,1458.68C1552.5,1458.68 1585.51,1432.39 1585.51,1387.31L1585.51,1161.36L1504.26,1161.36L1504.26,1383.76C1504.26,1396.21 1497.14,1401.55 1480.74,1401.55C1477.38,1401.55 1473.82,1401.35 1471.44,1400.95L1471.44,1457.49C1476.19,1458.09 1488.05,1458.68 1496.15,1458.68Z" style="fill:rgb(149,198,35);fill-rule:nonzero;"/>
            </g>
            <path d="M1604.75,1317.53C1604.75,1357.86 1631.63,1384.74 1670.57,1384.74C1702.2,1384.74 1722.17,1371.89 1731.06,1352.92L1733.04,1352.92L1733.04,1380L1814.29,1380L1814.29,1230.75C1814.29,1183.31 1774.75,1157.21 1714.06,1157.21C1653.18,1157.21 1611.86,1186.07 1611.86,1230.95L1689.15,1237.67C1689.75,1221.06 1699.63,1214.34 1712.68,1214.34C1725.13,1214.34 1733.04,1220.47 1733.04,1233.32L1733.04,1243.6L1688.76,1248.34C1635.98,1254.08 1604.75,1276.81 1604.75,1317.53ZM1710.7,1292.82L1733.04,1290.45L1733.04,1295.19C1733.04,1312.59 1723.55,1326.63 1705.37,1326.63C1694.3,1326.63 1683.62,1322.87 1683.62,1311.21C1683.62,1299.54 1694.1,1294.6 1710.7,1292.82Z" style="fill:rgb(149,198,35);fill-rule:nonzero;"/>
            <path d="M2010.45,1380L2043.46,1240.04L2044.25,1241.03L2076.28,1380L2196.87,1380L2255.18,1161.36L2168.4,1161.36L2133.01,1319.31L2130.05,1319.31L2090.71,1161.36L1996.02,1161.36L1954.7,1319.31L1951.74,1319.31L1916.35,1161.36L1829.57,1161.36L1887.89,1380L2010.45,1380Z" style="fill:rgb(149,198,35);fill-rule:nonzero;"/>
            <path d="M2357.05,1380L2357.05,1161.36L2276,1161.36L2276,1380L2357.05,1380ZM2270.86,1092.37C2270.86,1119.26 2289.24,1136.45 2316.33,1136.45C2344.99,1136.45 2363.18,1119.26 2363.18,1092.37C2363.18,1066.87 2344.99,1049.67 2316.33,1049.67C2289.24,1049.67 2270.86,1066.87 2270.86,1092.37Z" style="fill:rgb(149,198,35);fill-rule:nonzero;"/>
            <path d="M2379.25,1317.53C2379.25,1357.86 2406.14,1384.74 2445.08,1384.74C2476.71,1384.74 2496.68,1371.89 2505.57,1352.92L2507.55,1352.92L2507.55,1380L2588.8,1380L2588.8,1230.75C2588.8,1183.31 2549.26,1157.21 2488.57,1157.21C2427.68,1157.21 2386.37,1186.07 2386.37,1230.95L2463.66,1237.67C2464.26,1221.06 2474.14,1214.34 2487.19,1214.34C2499.64,1214.34 2507.55,1220.47 2507.55,1233.32L2507.55,1243.6L2463.27,1248.34C2410.49,1254.08 2379.25,1276.81 2379.25,1317.53ZM2485.21,1292.82L2507.55,1290.45L2507.55,1295.19C2507.55,1312.59 2498.06,1326.63 2479.87,1326.63C2468.8,1326.63 2458.13,1322.87 2458.13,1311.21C2458.13,1299.54 2468.6,1294.6 2485.21,1292.82Z" style="fill:rgb(149,198,35);fill-rule:nonzero;"/>
            <g transform="matrix(1.45253,0,0,1.45253,-1261.36,344.186)">
                <path d="M1930.5,551.84C1912.1,551.84 1897.16,536.901 1897.16,518.5L1897.16,475C1923.38,475.006 1929.25,492.619 1930.5,498.858C1931.75,492.619 1937.62,475.006 1963.84,475L1963.84,518.5C1963.84,536.901 1948.9,551.84 1930.5,551.84Z" style="fill:rgb(239,231,218);"/>
            </g>
            <path d="M2613.96,1380L2695.21,1380L2695.21,1317.93L2704.7,1307.06L2750.76,1380L2846.83,1380L2764.6,1256.05L2845.65,1161.36L2751.15,1161.36L2698.37,1225.21L2695.21,1225.21L2695.21,1083.48L2613.96,1083.48L2613.96,1380Z" style="fill:rgb(149,198,35);fill-rule:nonzero;"/>
        </g>
        <g transform="matrix(1,0,0,1,1369.62,741.776)">
            <g transform="matrix(-7.12013e-17,-1.16281,-1.16281,7.12013e-17,1596.09,1669.68)">
                <path d="M1157.28,582.24C1159.65,573.374 1155.78,564.022 1147.84,559.424C1133.77,551.273 1110.64,537.882 1091.84,526.997C1085.56,523.358 1077.81,523.351 1071.52,526.978C1065.23,530.605 1061.35,537.315 1061.35,544.577C1061.35,560.804 1061.35,576.562 1061.35,576.586L1061.35,660.083C1061.35,667.781 1065.7,674.818 1072.59,678.257C1079.47,681.697 1087.71,680.948 1093.87,676.322C1124.49,653.285 1147.22,620.326 1157.28,582.24ZM1110.48,413.899C1103.94,407.625 1094.03,406.462 1086.22,411.053C1072.13,419.243 1048.97,432.85 1030.22,443.865C1023.99,447.525 1020.17,454.219 1020.2,461.445C1020.22,468.671 1024.08,475.341 1030.33,478.961C1065.24,499.171 1121.3,531.631 1147.62,546.868C1150.79,548.704 1154.7,548.708 1157.87,546.878C1161.05,545.049 1163,541.664 1163,538C1163,538 1163,538 1163,538C1163,489.34 1142.87,445.346 1110.48,413.899ZM944.426,371.076C935.566,373.467 929.41,381.503 929.41,390.681C929.401,406.875 929.401,433.453 929.401,455.131C929.401,462.417 933.302,469.144 939.625,472.763C945.948,476.382 953.724,476.337 960.006,472.647C988.433,455.947 1030.54,431.213 1058.96,414.514C1065.59,410.622 1069.45,403.326 1068.94,395.659C1068.43,387.992 1063.65,381.267 1056.57,378.28C1036.07,369.729 1013.58,365 990,365C974.229,365 958.949,367.115 944.426,371.076ZM822.359,495.142C820.068,504.014 824.002,513.322 831.962,517.861C846.106,525.934 869.394,539.215 888.273,549.981C894.561,553.567 902.282,553.536 908.541,549.9C914.8,546.264 918.651,539.572 918.651,532.334C918.651,515.977 918.651,500.019 918.651,500.007L918.651,415.918C918.651,408.218 914.298,401.18 907.408,397.741C900.519,394.303 892.278,395.055 886.124,399.684C855.141,422.998 832.23,456.474 822.359,495.142ZM867.933,660.544C874.392,666.903 884.291,668.193 892.164,663.704C906.245,655.756 929.344,642.583 948.205,631.827C954.543,628.213 958.456,621.477 958.456,614.18C958.456,606.884 954.543,600.148 948.205,596.533C934.489,588.712 921.359,581.224 921.339,581.212C921.339,581.212 859.18,545.765 831.149,529.78C828.22,528.11 824.624,528.124 821.709,529.817C818.794,531.511 817,534.627 817,537.999C817,537.999 817,538 817,538C817,585.862 836.478,629.21 867.933,660.544ZM1035.57,704.924C1044.43,702.533 1050.59,694.497 1050.59,685.319C1050.6,669.085 1050.6,642.422 1050.6,620.781C1050.6,613.542 1046.75,606.851 1040.49,603.215C1034.23,599.579 1026.51,599.548 1020.22,603.134C991.432,619.551 948.406,644.087 919.469,660.589C912.792,664.397 908.836,671.646 909.246,679.321C909.657,686.996 914.363,693.782 921.407,696.856C942.445,705.953 965.638,711 990,711C1005.77,711 1021.05,708.885 1035.57,704.924Z" style="fill:rgb(149,198,35);"/>
            </g>
            <g transform="matrix(1.05631,0,0,1.05631,-1068.7,-23.83)">
                <path d="M1930.5,551.84C1912.1,551.84 1897.16,536.901 1897.16,518.5L1897.16,475C1923.38,475.006 1929.25,492.619 1930.5,498.858C1931.75,492.619 1937.62,475.006 1963.84,475L1963.84,518.5C1963.84,536.901 1948.9,551.84 1930.5,551.84Z" style="fill:white;"/>
            </g>
        </g>
    </g>
</svg>
